<svg width="399" height="343" viewBox="0 0 399 343" fill="none" xmlns="http://www.w3.org/2000/svg">
<g filter="url(#filter0_d_5203_6)">
<rect x="4" width="380" height="287" fill="#FAE9E0"/>
<rect x="4.5" y="0.5" width="379" height="286" stroke="black"/>
</g>
<path d="M285.835 278.785C228.235 318.785 162.502 294.452 136.835 277.285H136.335C136.002 276.618 135.235 274.885 134.835 273.285C134.564 272.199 132.129 269.825 129.81 267.785M285.835 278.785C263.335 293.285 202.535 312.985 139.335 275.785M285.835 278.785C230.235 316.385 165.002 296.785 139.335 282.285V275.785M285.835 278.785L285.335 278.285M139.335 275.785L135.835 272.785L131.835 268.285L129.81 267.785M325.335 272.285L319.835 276.285C317.835 271.085 295.669 275.118 284.835 277.785L285.335 278.285M325.335 272.285C330.669 273.118 340.035 276.485 334.835 283.285C328.502 288.285 308.735 299.185 280.335 302.785C255.169 307.118 193.935 313.185 150.335 302.785C111.335 295.785 51.4355 278.685 123.835 266.285L126.835 265.285M325.335 272.285C315.735 269.485 304.002 264.118 299.335 261.785M126.835 265.285C127.639 265.928 128.711 266.819 129.81 267.785M126.835 265.285L118.579 253.785M112.835 245.785C67.5021 250.118 -7.16457 268.785 56.8354 308.785C93.6688 329.118 200.835 360.685 334.835 324.285C385.669 306.118 452.535 264.885 313.335 245.285M112.835 245.785C82.8354 195.385 81.6688 135.785 84.8354 112.285M112.835 245.785L118.579 253.785M313.335 245.285L325.835 217.785M313.335 245.285L306.335 253.535M285.335 278.285L299.335 261.785M299.335 261.785L306.335 253.535M319.835 272.785L300.335 264.785L292.835 273.785L308.835 270.785L310.835 271.785H312.335L301.335 267.785L299.335 268.785L297.835 270.785L301.335 270.285M325.835 217.785C355.002 214.618 409.435 197.585 393.835 154.785C389.502 144.952 373.635 127.985 344.835 138.785M325.835 217.785C327.365 215.155 328.82 211.93 330.196 208.285M344.835 138.785C344.497 141.776 344.046 145.338 343.486 149.285M344.835 138.785L343.486 149.285M330.196 208.285C330.755 206.802 331.302 205.249 331.835 203.638M330.196 208.285C331.447 208.062 332.961 207.763 334.607 207.401M331.835 203.638L354.835 200.285C355.169 198.785 355.235 196.685 352.835 200.285C350.894 203.197 341.566 205.868 334.607 207.401M331.835 203.638C332.197 202.546 332.552 201.427 332.901 200.285M332.901 200.285L334.607 207.401M332.901 200.285C337.027 186.792 340.268 170.103 342.439 156.285M332.901 200.285C341.185 199.999 354.208 197.585 363.835 191.077M342.439 156.285C368.123 150.685 375.738 162.285 376.335 168.785C376.335 174.797 374.519 179.742 371.568 183.785M342.439 156.285C342.822 153.852 343.171 151.507 343.486 149.285M343.486 149.285C348.769 148.285 359.635 146.585 360.835 147.785M343.486 149.285V112.285M371.568 183.785C374.574 186.952 377.463 192.685 364.962 190.285M371.568 183.785C370.741 184.918 369.825 185.98 368.835 186.975M364.962 190.285C366.343 189.275 367.643 188.174 368.835 186.975M364.962 190.285C364.592 190.555 364.216 190.819 363.835 191.077M368.835 186.975C371.169 189.106 373.435 192.91 363.835 191.077M343.486 112.285C317.207 141.885 244.103 146.285 210.835 144.785C182.169 146.452 116.835 142.285 84.8354 112.285M343.486 112.285C343.989 109.277 343.043 105.601 339.82 101.785M84.8354 112.285C83.603 109.441 84.2688 105.723 88.4112 101.785M94.8354 163.285C103.669 200.785 130.135 276.285 165.335 278.285M339.82 101.785C329.47 89.5313 295.631 75.8449 210.835 78.285C131.263 80.5749 98.8333 91.877 88.4112 101.785M339.82 101.785C338.346 103.7 336.157 105.913 333.211 108.285M88.4112 101.785C89.5882 103.896 91.067 105.894 92.8105 107.785M92.8105 107.785C99.6522 102.452 116.135 92.285 127.335 94.285M92.8105 107.785C99.8334 115.403 111.151 121.281 124.335 125.766M176.335 86.785C184.335 85.785 201.735 83.985 207.335 84.785M218.835 84.785C228.835 84.6184 249.035 84.785 249.835 86.785M124.335 125.766C152.54 135.36 189.291 138.575 210.835 138.785C252.604 138.785 283.223 132.128 304.335 124.001M124.335 125.766C147.002 116.75 214.735 103.774 304.335 124.001M304.335 124.001C317.551 118.914 327.042 113.251 333.211 108.285M306.335 253.535C320.169 253.618 348.835 255.185 352.835 260.785M118.579 253.785C101.831 254.118 67.4354 256.885 63.8354 265.285M87.3354 291.285C100.335 300.118 135.935 317.385 174.335 315.785M260.335 313.285C277.669 311.285 314.335 305.785 322.335 299.785M296.835 93.285C307.586 95.285 329.912 101.085 333.211 108.285M328.835 140.785C329.002 160.452 322.435 211.385 294.835 257.785M280.335 272.785L288.335 264.285M132.835 272.285L116.335 276.785C115.835 277.452 115.235 278.685 116.835 278.285C118.435 277.885 128.835 275.452 133.835 274.285L132.835 272.285Z" stroke="#AF9283" stroke-width="4"/>
<defs>
<filter id="filter0_d_5203_6" x="0" y="0" width="388" height="295" filterUnits="userSpaceOnUse" color-interpolation-filters="sRGB">
<feFlood flood-opacity="0" result="BackgroundImageFix"/>
<feColorMatrix in="SourceAlpha" type="matrix" values="0 0 0 0 0 0 0 0 0 0 0 0 0 0 0 0 0 0 127 0" result="hardAlpha"/>
<feOffset dy="4"/>
<feGaussianBlur stdDeviation="2"/>
<feComposite in2="hardAlpha" operator="out"/>
<feColorMatrix type="matrix" values="0 0 0 0 0 0 0 0 0 0 0 0 0 0 0 0 0 0 0.25 0"/>
<feBlend mode="normal" in2="BackgroundImageFix" result="effect1_dropShadow_5203_6"/>
<feBlend mode="normal" in="SourceGraphic" in2="effect1_dropShadow_5203_6" result="shape"/>
</filter>
</defs>
</svg>
