<svg width="410" height="515" viewBox="0 0 410 515" fill="none" xmlns="http://www.w3.org/2000/svg">
<rect width="410" height="466" fill="#E3EBE7"/>
<path d="M91.4543 165.069V165.069C90.7516 164.991 85.7932 161.65 85.7932 160.943V147.531C84.8874 138.932 62.3941 139.422 51.2606 140.742C39.0327 143.005 38.2401 169.218 39.3723 182.042V182.042C39.3723 191.441 53.7684 188.83 63.1676 188.83H91.4543M91.4543 165.069V188.83M91.4543 165.069C92.1745 165.149 95.2147 165.207 99.9459 165.246M212.601 165.069V165.069C212.601 154.134 221.467 145.268 232.402 145.268H243.519C252.347 145.268 260.814 151.379 259.306 160.078C259.208 160.642 259.09 161.201 258.95 161.749C258.672 162.837 258.456 163.946 258.456 165.069V165.069M212.601 165.069H219.961M212.601 165.069C183.617 165.211 132.344 165.394 106.739 165.287M258.456 165.069H266.949C268.199 165.069 269.212 164.056 269.212 162.806V162.806V182.607C269.212 184.682 268.193 188.83 264.117 188.83H258.456M258.456 165.069H251.663M91.4543 188.83H99.9459M99.9459 165.246V188.83M99.9459 165.246C100.313 165.249 100.691 165.252 101.078 165.255M99.9459 188.83L214.866 188.83M114.665 182.042C114.665 182.042 158.138 182.042 185.994 182.042M47.2979 182.607C53.3363 183.362 72.2066 184.304 72.2066 184.304M50.6945 148.097C50.6945 148.097 63.8056 148.097 72.2066 148.097M214.866 188.83V228.998M214.866 188.83H220.527M214.866 228.998H157.123M214.866 228.998H220.527M135.045 249.365V234.659C135.045 231.533 137.579 228.998 140.706 228.998V228.998M135.045 249.365H122.024C120.515 249.176 117.608 250.157 118.061 255.588C118.709 266.264 120.828 285.764 124.562 289.953C125.559 291.071 127.319 290.664 128.817 290.664V290.664M135.045 249.365H141.838M140.706 228.998L141.838 249.365M140.706 228.998H157.123M141.838 249.365H148.631M157.123 228.998V249.365M157.123 249.365H148.631M157.123 249.365H166.181M337.145 249.365H348.467C354.808 248.912 356.016 252.948 355.827 255.022C355.511 273.633 350.961 283.615 348.232 287.955C347.073 289.799 344.984 290.664 342.806 290.664V290.664M337.145 249.365V235.225C337.145 231.786 334.357 228.998 330.918 228.998V228.998M337.145 249.365H330.918M330.918 228.998V249.365M330.918 228.998H316.199M330.918 249.365H316.199M316.199 228.998V249.365M316.199 228.998H258.456M316.199 249.365H306.009M258.456 188.83V228.998M258.456 188.83H251.663M258.456 228.998H252.229M137.875 296.887H336.013M342.806 290.664H339.41H337.145M342.806 290.664L382.743 490.217C382.914 491.072 383 491.941 383 492.812V492.812C383 496.32 381.606 499.684 379.125 502.164L375.637 505.649C370.927 510.356 364.541 513 357.882 513H126.416C113.092 513 100.313 507.709 90.8882 498.291V498.291V498.291C89.8269 497.23 89.3647 495.71 89.656 494.238L129.95 290.664M342.806 290.664L346.769 260.114M129.95 290.664H128.817M129.95 290.664H135.045M136.177 304.807H155.991M132.214 315.556H150.896M317.331 305.373H336.013M322.426 316.122C329.059 316.122 332.777 316.122 339.41 316.122M97.6815 487.542C114.262 487.542 123.559 487.542 140.14 487.542M97.6815 497.159L202.411 500.554M106.173 503.948C128.281 504.611 140.676 504.983 162.784 505.645M331.484 486.976L375.641 487.542M269.212 500.554C269.212 500.554 333.043 498.485 373.942 497.159M309.972 505.645C332.08 504.983 344.475 504.611 366.583 503.948M125.987 260.68L128.817 290.664M133.346 272.56L135.045 290.664M135.045 290.664H337.145M148.065 238.05L148.631 249.365M167.313 237.484L166.181 249.365M166.181 249.365H306.009M305.443 236.918L306.009 249.365M324.691 238.616V249.93M338.844 271.994L337.145 290.664M223 154V154C220.743 157.224 219.663 161.145 219.961 165.069V165.069M219.961 165.069H251.663M250.5 152.5V152.5C251.779 154.098 252.357 156.146 252.103 158.177L252 159L251.663 165.069M251.663 206.934V188.83M251.663 188.83H220.527M221.093 206.934L220.527 188.83M221.093 218.249L220.527 228.998M220.527 228.998H252.229M251.663 217.683L252.229 228.998M102.776 166.201H105.607H106.07C106.137 166.201 106.201 166.177 106.252 166.134V166.134C106.467 165.952 106.309 165.601 106.029 165.642L104.4 165.88C103.926 165.95 103.893 166.621 104.357 166.737V166.737C104.434 166.756 104.504 166.796 104.56 166.852L104.702 166.993C104.919 167.21 105.041 167.505 105.041 167.812V167.927C105.041 169.415 103.057 169.921 102.345 168.615L101.743 167.513C101.677 167.393 101.626 167.266 101.59 167.133L101.078 165.255M101.078 165.255C101.799 165.261 102.555 165.266 103.343 165.27M103.343 165.27C104.416 165.276 105.55 165.282 106.739 165.287M103.343 165.27L106.739 165.287M85.7932 175.253V182.607M64 153.5L62.5828 156.017L65.4133 153.189L62.5828 152.623M59 151.491C62.1519 151.629 64.0147 151.581 66.9851 151.508C67.4159 151.498 67.8227 151.709 68.0619 152.067V152.067C68.4664 152.674 68.2711 153.495 67.6817 153.924C66.3702 154.878 64.8472 156.34 64.8472 157.715C64.8472 158.042 64.7153 158.249 64.4914 158.36C61.2586 159.97 62.6112 151.488 59 151.491V151.491Z" stroke="#444A4A" stroke-width="3"/>
<path d="M139.969 391.438C139.5 388.906 139.57 386.258 140.18 383.492C140.836 380.68 141.867 377.891 143.273 375.125C144.68 372.359 146.414 369.711 148.477 367.18C150.539 364.602 152.742 362.281 155.086 360.219C157.477 358.156 159.961 356.422 162.539 355.016C165.164 353.609 167.719 352.648 170.203 352.133C170.953 352.133 171.609 352.367 172.172 352.836C172.781 353.305 173.297 353.891 173.719 354.594C174.141 355.297 174.445 356.047 174.633 356.844C174.867 357.641 174.984 358.367 174.984 359.023V365.844C174.984 366.312 174.797 366.617 174.422 366.758C174.047 366.852 173.719 366.898 173.438 366.898C173.109 366.898 172.711 366.852 172.242 366.758C171.773 366.664 171.539 366.359 171.539 365.844C171.539 365.656 171.516 365.352 171.469 364.93C171.422 364.508 171.375 364.039 171.328 363.523C171.281 363.008 171.234 362.516 171.188 362.047C171.188 361.578 171.188 361.273 171.188 361.133C171.188 361.039 171.164 360.734 171.117 360.219C171.117 359.656 171.07 359.094 170.977 358.531C170.883 357.969 170.742 357.453 170.555 356.984C170.367 356.516 170.133 356.281 169.852 356.281H167.391C167.391 356.281 167.18 356.398 166.758 356.633C166.336 356.82 165.844 357.055 165.281 357.336C164.719 357.617 164.156 357.922 163.594 358.25C163.031 358.531 162.609 358.789 162.328 359.023C162.188 359.117 161.953 359.281 161.625 359.516C161.344 359.75 161.039 359.984 160.711 360.219C160.383 360.453 160.078 360.688 159.797 360.922C159.516 361.156 159.305 361.32 159.164 361.414C156.633 363.852 154.43 366.125 152.555 368.234C150.68 370.297 149.109 372.453 147.844 374.703C146.578 376.953 145.617 379.391 144.961 382.016C144.352 384.594 144.047 387.664 144.047 391.227C144.047 392.633 144.117 394.203 144.258 395.938C144.445 397.625 144.703 399.359 145.031 401.141C145.406 402.922 145.922 404.68 146.578 406.414C147.234 408.102 148.055 409.602 149.039 410.914C150.023 412.227 151.219 413.281 152.625 414.078C154.031 414.875 155.695 415.273 157.617 415.273H159.164C161.273 414.57 163.125 413.938 164.719 413.375C166.359 412.766 167.812 412.156 169.078 411.547C170.391 410.938 171.562 410.281 172.594 409.578C173.672 408.828 174.703 407.938 175.688 406.906C176.719 405.875 177.773 404.633 178.852 403.18C179.93 401.727 181.148 400.016 182.508 398.047C182.555 398.047 182.625 398.047 182.719 398.047C182.812 398 182.906 397.977 183 397.977C183.844 397.977 184.266 398.398 184.266 399.242C184.266 400.32 183.984 401.539 183.422 402.898C182.906 404.211 181.922 405.664 180.469 407.258C179.062 408.852 177.07 410.539 174.492 412.32C171.961 414.055 168.703 415.812 164.719 417.594C163.969 417.922 163.312 418.203 162.75 418.438C162.188 418.625 161.648 418.766 161.133 418.859C160.617 418.953 160.078 419 159.516 419C159 419.047 158.414 419.07 157.758 419.07C155.32 419.07 153.188 418.648 151.359 417.805C149.578 416.961 148.031 415.836 146.719 414.43C145.406 412.977 144.305 411.336 143.414 409.508C142.57 407.633 141.891 405.664 141.375 403.602C140.859 401.492 140.484 399.406 140.25 397.344C140.062 395.234 139.969 393.266 139.969 391.438ZM182.438 413.516C182.438 413.469 182.461 413.305 182.508 413.023C182.555 412.742 182.602 412.461 182.648 412.18C182.695 411.852 182.742 411.57 182.789 411.336C182.836 411.055 182.859 410.867 182.859 410.773V410.492V410.07L183.844 405.641C184.641 403.953 185.461 402.336 186.305 400.789C187.195 399.242 188.203 397.883 189.328 396.711C190.453 395.539 191.742 394.602 193.195 393.898C194.695 393.195 196.5 392.844 198.609 392.844C199.031 392.844 199.547 392.984 200.156 393.266C200.812 393.5 201.445 393.805 202.055 394.18C202.711 394.555 203.297 394.953 203.812 395.375C204.375 395.75 204.797 396.102 205.078 396.43C206.531 396.195 207.586 396.078 208.242 396.078C208.898 396.031 209.461 396.008 209.93 396.008C210.398 395.961 210.891 395.867 211.406 395.727C211.969 395.586 212.812 395.281 213.938 394.812C214.734 394.578 215.508 394.461 216.258 394.461C216.586 394.461 216.891 394.602 217.172 394.883C217.5 395.164 217.664 395.492 217.664 395.867C217.664 396.336 217.5 396.758 217.172 397.133C216.844 397.508 216.445 397.742 215.977 397.836L207.188 399.805L206.414 400.156C206.367 402.688 205.805 405.102 204.727 407.398C203.648 409.695 202.219 411.711 200.438 413.445C198.656 415.18 196.594 416.562 194.25 417.594C191.906 418.578 189.469 419.07 186.938 419.07C186.75 419.07 186.445 419.047 186.023 419C185.602 419 185.32 419 185.18 419C184.148 418.578 183.422 417.805 183 416.68C182.625 415.555 182.438 414.5 182.438 413.516ZM186.938 414.922C186.984 415.156 187.172 415.273 187.5 415.273C187.828 415.273 188.062 415.273 188.203 415.273C189.891 415.273 191.625 414.852 193.406 414.008C195.188 413.117 196.781 411.992 198.188 410.633C199.641 409.227 200.812 407.656 201.703 405.922C202.641 404.141 203.109 402.359 203.109 400.578C201.609 400.578 200.109 400.461 198.609 400.227C197.109 399.945 195.656 399.805 194.25 399.805H194.18L188.344 405.992C188.016 406.32 187.758 406.766 187.57 407.328C187.383 407.891 187.242 408.5 187.148 409.156C187.055 409.812 186.984 410.469 186.938 411.125C186.891 411.781 186.867 412.367 186.867 412.883C186.867 413.023 186.867 413.352 186.867 413.867C186.867 414.383 186.891 414.734 186.938 414.922ZM214.43 441.641C214.43 441.5 214.43 441.266 214.43 440.938C214.43 440.656 214.43 440.352 214.43 440.023C214.43 439.742 214.43 439.484 214.43 439.25C214.43 439.062 214.43 438.945 214.43 438.898L216.891 416.891C217.219 415.156 217.5 413.797 217.734 412.812C217.969 411.781 218.156 411.008 218.297 410.492C218.484 409.93 218.672 409.555 218.859 409.367L223.992 392.914C224.18 392.352 224.531 391.555 225.047 390.523C225.562 389.445 226.148 388.391 226.805 387.359C227.508 386.328 228.258 385.461 229.055 384.758C229.852 384.008 230.648 383.633 231.445 383.633C231.773 383.633 232.055 383.75 232.289 383.984C232.523 384.219 232.711 384.5 232.852 384.828C233.039 385.156 233.156 385.508 233.203 385.883C233.297 386.258 233.344 386.562 233.344 386.797C233.344 388.953 233.039 391.156 232.43 393.406C231.867 395.656 231.117 397.883 230.18 400.086C229.242 402.242 228.117 404.305 226.805 406.273C225.492 408.242 224.109 409.977 222.656 411.477L221.602 415.273C226.898 415.18 232.031 414.312 237 412.672C242.016 411.031 246.82 409.016 251.414 406.625H251.766C252.188 406.625 252.469 406.789 252.609 407.117C252.797 407.398 252.891 407.703 252.891 408.031C252.891 408.406 252.82 408.734 252.68 409.016C252.539 409.297 252.234 409.555 251.766 409.789C248.062 412.086 244.102 413.961 239.883 415.414C235.664 416.867 231.398 417.969 227.086 418.719C227.93 419.656 228.633 420.43 229.195 421.039C229.758 421.648 230.203 422.258 230.531 422.867C230.906 423.523 231.164 424.273 231.305 425.117C231.492 425.961 231.586 427.109 231.586 428.562C231.586 432.219 230.719 435.406 228.984 438.125C227.297 440.891 225.07 443.445 222.305 445.789C221.648 446.305 220.828 446.844 219.844 447.406C218.906 447.969 217.992 448.25 217.102 448.25C216.305 448.25 215.719 447.992 215.344 447.477C214.969 446.961 214.711 446.352 214.57 445.648C214.43 444.992 214.383 444.289 214.43 443.539C214.43 442.789 214.43 442.156 214.43 441.641ZM220.195 421.742C220.008 423.195 219.797 424.836 219.562 426.664C219.328 428.492 219.117 430.367 218.93 432.289C218.742 434.211 218.578 436.133 218.438 438.055C218.297 439.977 218.227 441.781 218.227 443.469C219.492 443.469 220.711 442.906 221.883 441.781C223.102 440.703 224.18 439.367 225.117 437.773C226.055 436.227 226.828 434.633 227.438 432.992C228.047 431.352 228.375 429.992 228.422 428.914C228.516 427.602 228.422 426.477 228.141 425.539C227.906 424.648 227.508 423.875 226.945 423.219C226.383 422.609 225.656 422.094 224.766 421.672C223.875 421.25 222.82 420.828 221.602 420.406H221.25C220.922 420.406 220.688 420.547 220.547 420.828C220.406 421.109 220.289 421.414 220.195 421.742ZM228.844 391.578C228.797 391.578 228.703 391.766 228.562 392.141C228.422 392.469 228.234 392.844 228 393.266C227.812 393.688 227.625 394.133 227.438 394.602C227.297 395.07 227.18 395.422 227.086 395.656C226.945 396.031 226.781 396.523 226.594 397.133C226.406 397.695 226.219 398.281 226.031 398.891C225.891 399.453 225.75 399.969 225.609 400.438C225.469 400.859 225.398 401.094 225.398 401.141V401.562C226.289 399.969 227.109 398.305 227.859 396.57C228.609 394.789 229.031 393.008 229.125 391.227L228.844 391.578ZM249.516 441.641C249.516 441.5 249.516 441.266 249.516 440.938C249.516 440.656 249.516 440.352 249.516 440.023C249.516 439.742 249.516 439.484 249.516 439.25C249.516 439.062 249.516 438.945 249.516 438.898L251.977 416.891C252.305 415.156 252.586 413.797 252.82 412.812C253.055 411.781 253.242 411.008 253.383 410.492C253.57 409.93 253.758 409.555 253.945 409.367L259.078 392.914C259.266 392.352 259.617 391.555 260.133 390.523C260.648 389.445 261.234 388.391 261.891 387.359C262.594 386.328 263.344 385.461 264.141 384.758C264.938 384.008 265.734 383.633 266.531 383.633C266.859 383.633 267.141 383.75 267.375 383.984C267.609 384.219 267.797 384.5 267.938 384.828C268.125 385.156 268.242 385.508 268.289 385.883C268.383 386.258 268.43 386.562 268.43 386.797C268.43 388.953 268.125 391.156 267.516 393.406C266.953 395.656 266.203 397.883 265.266 400.086C264.328 402.242 263.203 404.305 261.891 406.273C260.578 408.242 259.195 409.977 257.742 411.477L256.688 415.273C261.984 415.18 267.117 414.312 272.086 412.672C277.102 411.031 281.906 409.016 286.5 406.625H286.852C287.273 406.625 287.555 406.789 287.695 407.117C287.883 407.398 287.977 407.703 287.977 408.031C287.977 408.406 287.906 408.734 287.766 409.016C287.625 409.297 287.32 409.555 286.852 409.789C283.148 412.086 279.188 413.961 274.969 415.414C270.75 416.867 266.484 417.969 262.172 418.719C263.016 419.656 263.719 420.43 264.281 421.039C264.844 421.648 265.289 422.258 265.617 422.867C265.992 423.523 266.25 424.273 266.391 425.117C266.578 425.961 266.672 427.109 266.672 428.562C266.672 432.219 265.805 435.406 264.07 438.125C262.383 440.891 260.156 443.445 257.391 445.789C256.734 446.305 255.914 446.844 254.93 447.406C253.992 447.969 253.078 448.25 252.188 448.25C251.391 448.25 250.805 447.992 250.43 447.477C250.055 446.961 249.797 446.352 249.656 445.648C249.516 444.992 249.469 444.289 249.516 443.539C249.516 442.789 249.516 442.156 249.516 441.641ZM255.281 421.742C255.094 423.195 254.883 424.836 254.648 426.664C254.414 428.492 254.203 430.367 254.016 432.289C253.828 434.211 253.664 436.133 253.523 438.055C253.383 439.977 253.312 441.781 253.312 443.469C254.578 443.469 255.797 442.906 256.969 441.781C258.188 440.703 259.266 439.367 260.203 437.773C261.141 436.227 261.914 434.633 262.523 432.992C263.133 431.352 263.461 429.992 263.508 428.914C263.602 427.602 263.508 426.477 263.227 425.539C262.992 424.648 262.594 423.875 262.031 423.219C261.469 422.609 260.742 422.094 259.852 421.672C258.961 421.25 257.906 420.828 256.688 420.406H256.336C256.008 420.406 255.773 420.547 255.633 420.828C255.492 421.109 255.375 421.414 255.281 421.742ZM263.93 391.578C263.883 391.578 263.789 391.766 263.648 392.141C263.508 392.469 263.32 392.844 263.086 393.266C262.898 393.688 262.711 394.133 262.523 394.602C262.383 395.07 262.266 395.422 262.172 395.656C262.031 396.031 261.867 396.523 261.68 397.133C261.492 397.695 261.305 398.281 261.117 398.891C260.977 399.453 260.836 399.969 260.695 400.438C260.555 400.859 260.484 401.094 260.484 401.141V401.562C261.375 399.969 262.195 398.305 262.945 396.57C263.695 394.789 264.117 393.008 264.211 391.227L263.93 391.578ZM286.641 408.031C286.734 407.75 286.875 407.258 287.062 406.555C287.297 405.805 287.508 405.008 287.695 404.164C287.93 403.32 288.117 402.523 288.258 401.773C288.445 400.977 288.586 400.438 288.68 400.156C288.961 399.031 289.289 397.812 289.664 396.5C290.086 395.188 290.648 393.969 291.352 392.844C292.055 391.719 292.945 390.805 294.023 390.102C295.148 389.352 296.531 388.977 298.172 388.977C298.781 388.977 299.203 389.211 299.438 389.68C299.719 390.102 299.953 390.57 300.141 391.086C300.141 391.273 300.141 391.625 300.141 392.141C300.188 392.609 300.211 392.938 300.211 393.125C300.211 395.141 300 396.922 299.578 398.469C299.203 400.016 298.594 401.445 297.75 402.758C296.953 404.07 295.969 405.312 294.797 406.484C293.625 407.609 292.289 408.805 290.789 410.07C290.742 410.211 290.672 410.445 290.578 410.773C290.484 411.102 290.438 411.336 290.438 411.477V411.617C290.438 412.461 290.578 413.141 290.859 413.656C291.141 414.172 291.516 414.594 291.984 414.922C292.5 415.203 293.062 415.391 293.672 415.484C294.328 415.531 295.031 415.555 295.781 415.555C297.984 415.555 300.094 415.25 302.109 414.641C304.125 414.031 305.977 413.047 307.664 411.688C307.898 411.453 308.18 411.125 308.508 410.703C308.883 410.234 309.258 409.766 309.633 409.297C310.008 408.828 310.406 408.43 310.828 408.102C311.25 407.727 311.695 407.539 312.164 407.539C312.633 407.539 312.914 407.727 313.008 408.102C313.102 408.477 313.148 408.852 313.148 409.227C313.148 410.258 312.82 411.242 312.164 412.18C311.555 413.07 310.734 413.891 309.703 414.641C308.719 415.344 307.57 415.977 306.258 416.539C304.992 417.102 303.727 417.57 302.461 417.945C301.195 418.32 299.977 418.602 298.805 418.789C297.68 418.977 296.719 419.07 295.922 419.07C293.438 419.07 291.352 418.672 289.664 417.875C288.023 417.031 286.898 415.367 286.289 412.883L286.641 408.031ZM296.695 394.18C295.758 395.023 295.008 395.797 294.445 396.5C293.93 397.156 293.508 397.859 293.18 398.609C292.898 399.312 292.641 400.086 292.406 400.93C292.219 401.773 292.008 402.758 291.773 403.883C292.664 403.18 293.391 402.477 293.953 401.773C294.562 401.07 295.055 400.344 295.43 399.594C295.805 398.844 296.086 398.047 296.273 397.203C296.461 396.312 296.602 395.305 296.695 394.18ZM312.656 408.031C312.75 407.75 312.891 407.258 313.078 406.555C313.312 405.805 313.523 405.008 313.711 404.164C313.945 403.32 314.133 402.523 314.273 401.773C314.461 400.977 314.602 400.438 314.695 400.156C314.977 399.031 315.305 397.812 315.68 396.5C316.102 395.188 316.664 393.969 317.367 392.844C318.07 391.719 318.961 390.805 320.039 390.102C321.164 389.352 322.547 388.977 324.188 388.977C324.797 388.977 325.219 389.211 325.453 389.68C325.734 390.102 325.969 390.57 326.156 391.086C326.156 391.273 326.156 391.625 326.156 392.141C326.203 392.609 326.227 392.938 326.227 393.125C326.227 395.141 326.016 396.922 325.594 398.469C325.219 400.016 324.609 401.445 323.766 402.758C322.969 404.07 321.984 405.312 320.812 406.484C319.641 407.609 318.305 408.805 316.805 410.07C316.758 410.211 316.688 410.445 316.594 410.773C316.5 411.102 316.453 411.336 316.453 411.477V411.617C316.453 412.461 316.594 413.141 316.875 413.656C317.156 414.172 317.531 414.594 318 414.922C318.516 415.203 319.078 415.391 319.688 415.484C320.344 415.531 321.047 415.555 321.797 415.555C324 415.555 326.109 415.25 328.125 414.641C330.141 414.031 331.992 413.047 333.68 411.688C333.914 411.453 334.195 411.125 334.523 410.703C334.898 410.234 335.273 409.766 335.648 409.297C336.023 408.828 336.422 408.43 336.844 408.102C337.266 407.727 337.711 407.539 338.18 407.539C338.648 407.539 338.93 407.727 339.023 408.102C339.117 408.477 339.164 408.852 339.164 409.227C339.164 410.258 338.836 411.242 338.18 412.18C337.57 413.07 336.75 413.891 335.719 414.641C334.734 415.344 333.586 415.977 332.273 416.539C331.008 417.102 329.742 417.57 328.477 417.945C327.211 418.32 325.992 418.602 324.82 418.789C323.695 418.977 322.734 419.07 321.938 419.07C319.453 419.07 317.367 418.672 315.68 417.875C314.039 417.031 312.914 415.367 312.305 412.883L312.656 408.031ZM322.711 394.18C321.773 395.023 321.023 395.797 320.461 396.5C319.945 397.156 319.523 397.859 319.195 398.609C318.914 399.312 318.656 400.086 318.422 400.93C318.234 401.773 318.023 402.758 317.789 403.883C318.68 403.18 319.406 402.477 319.969 401.773C320.578 401.07 321.07 400.344 321.445 399.594C321.82 398.844 322.102 398.047 322.289 397.203C322.477 396.312 322.617 395.305 322.711 394.18Z" fill="#444A4A"/>
</svg>
