<svg width="410" height="324" viewBox="0 0 410 324" fill="none" xmlns="http://www.w3.org/2000/svg">
<rect y="32" width="410" height="276" fill="#E3EBE7"/>
<path d="M91.6087 11.3084C97.1821 7.55052 121.795 0.48575 175.661 2.28952C211.596 1.69777 271.23 2.03783 280.499 6.61111M91.6087 11.3084C86.186 13.7644 80.7633 41.5216 80.7633 40.1688M91.6087 11.3084L97.9352 11.6372M275.529 11.3084L268.298 11.881M275.529 11.3084C281.833 9.39043 283.003 7.84636 280.499 6.61111M275.529 11.3084H282.533M247.059 13.5631C218.138 15.0663 155.235 17.1707 134.99 13.5631M247.059 13.5631C210.908 4.18351 157.284 9.65495 134.99 13.5631M247.059 13.5631L229.888 12.2103C202.021 11.3084 147.191 10.2261 150.807 13.1122C154.422 15.9982 205.485 9.95558 205.485 9.95558M247.059 13.5631L258.809 12.6326M134.99 13.5631L117.367 12.6471M80.7633 40.1688C83.6253 40.6197 89.2589 41.251 88.8974 40.1688M80.7633 40.1688L79.7981 39.9623C76.3699 39.2293 72.7581 39.7808 72.2125 43.2438V43.2438C71.388 48.4771 76.0388 52.972 81.2617 53.8602C82.7582 54.1147 84.249 54.3639 85.7342 54.6079M97.9352 11.6372C94.772 20.6968 88.5359 39.0865 88.8974 40.1688M97.9352 11.6372L111.944 12.3653M88.8974 40.1688C90.861 40.4684 92.8193 40.758 94.772 41.0377M290.441 40.1688L298.575 39.2669M290.441 40.1688C292.249 40.1688 285.922 20.9285 282.533 11.3084M290.441 40.1688C288.675 40.5286 286.714 40.8973 284.566 41.2691M267.846 43.7017C270.892 43.3278 273.758 42.9438 276.432 42.5561M267.846 43.7017C267.244 33.7439 268.118 19.5739 276.432 42.5561M267.846 43.7017C255.402 45.229 239.948 46.5864 222.205 47.3321M276.432 42.5561C279.38 42.1287 282.096 41.6968 284.566 41.2691M270.106 33.4046C269.955 35.0581 269.744 38.7257 270.106 40.1688C270.462 41.5914 272.019 39.0403 272.785 37.5276C272.805 37.4872 272.802 37.4399 272.777 37.4023V37.4023C272.691 37.2736 272.493 37.3835 272.558 37.5243L274.173 41.0706L272.828 38.1617C271.918 36.1958 270.857 34.3038 269.654 32.5027V32.5027M258.809 12.6326L263.328 18.5235M258.809 12.6326L268.298 11.881M263.328 18.5235C261.52 15.7486 261.43 12.6999 268.298 11.881M263.328 18.5235C263.779 19.8763 267.937 11.6176 268.298 11.881M289.537 11.3084L280.499 6.61111M289.537 11.3084C293.152 19.8763 300.021 37.4631 298.575 39.2669M289.537 11.3084H282.533M298.575 39.2669H300.221C302.996 39.2669 304.559 38.6181 306.127 40.9072V40.9072C309.589 45.9584 303.993 53.5878 298.047 55.0518C296.915 55.3304 295.735 55.6091 294.508 55.8867M85.7342 54.6079C87.5417 73.3942 90.705 110.967 88.8974 110.967M85.7342 54.6079C87.0946 54.8314 88.4503 55.0505 89.8012 55.2653M88.8974 110.967C86.9392 110.666 83.0228 111.147 83.0228 115.476L94.992 224.679C95.4208 228.592 97.8217 231.894 101.098 234.074V234.074M88.8974 110.967L85.657 113.841C85.1313 114.307 84.8304 114.977 84.8304 115.679V116.454C84.8304 117.193 85.3594 117.827 86.087 117.959L86.2457 117.988C87.5401 118.223 88.4636 116.764 87.6979 115.694L87.6229 115.59C87.5692 115.515 87.5024 115.45 87.4256 115.399V115.399C86.9086 115.055 86.9989 114.27 87.5804 114.053L89.1872 113.451C89.5698 113.308 89.999 113.37 90.326 113.614L90.5513 113.783C91.0796 114.178 91.0796 114.97 90.5513 115.366V115.366C90.1307 115.681 90.0298 116.269 90.3217 116.706L90.5512 117.05C91.0795 117.841 92.2194 117.902 92.829 117.172L93.6027 116.245C93.7763 116.037 94.0043 115.882 94.2613 115.796V115.796C94.8398 115.604 95.477 115.792 95.8584 116.268L95.9272 116.353C96.5205 117.094 96.3514 118.183 95.5616 118.709L94.4093 119.475C93.5204 120.067 93.0288 121.075 93.1351 122.138C96.6366 157.14 102.877 225.911 101.098 234.074M88.8974 110.967C92.1286 112.253 95.4045 113.454 98.7178 114.574M101.098 234.074L103.439 287.792C103.672 293.149 106.387 298.142 111.04 300.808V300.808M101.098 234.074C104.578 235.504 108.673 236.994 113.3 238.466M279.596 232.27L275.412 286.163C274.914 292.574 271.577 298.489 266.039 301.755V301.755M279.596 232.27V232.27C284.579 230.613 284.917 224.239 285.598 219.031C289.402 189.944 294.965 145.172 296.511 125.101C297.027 118.402 296.205 109.995 289.537 109.163V109.163M279.596 232.27C278.248 232.89 276.896 233.491 275.541 234.074M289.537 109.163L294.508 55.8867M289.537 109.163L288.816 113.24C288.745 113.644 289.319 113.801 289.464 113.418V113.418C289.509 113.297 289.619 113.212 289.747 113.207C291.034 113.162 290.913 114.016 289.537 113.672C288.429 113.396 289.904 112.308 290.789 111.746C291.139 111.524 291.565 111.491 291.958 111.622V111.622C292.426 111.777 292.792 112.144 292.948 112.611L293.152 113.222L293.706 115.707C293.898 116.57 293.343 117.422 292.476 117.595L292.039 117.683C290.98 117.894 290.118 116.83 290.544 115.837L290.86 115.101C290.88 115.055 290.926 115.025 290.976 115.025V115.025C291.128 115.025 291.149 115.245 291 115.274L287.829 115.907C287.764 115.92 287.702 115.948 287.649 115.988L285.922 117.28M294.508 55.8867C292.929 56.244 291.272 56.5996 289.537 56.9515M285.922 117.28C283.911 155.61 279.02 232.631 275.541 234.074M285.922 117.28C284.195 117.727 282.348 118.179 280.388 118.633M275.541 234.074C272.688 235.301 269.82 236.447 266.943 237.516M266.943 237.516L274.625 119.9M266.943 237.516C262.145 239.297 257.319 240.863 252.482 242.232M274.625 119.9C275.081 119.805 275.533 119.709 275.981 119.613M274.625 119.9C273.45 120.145 272.245 120.39 271.01 120.633M259.261 122.736L252.482 242.232M259.261 122.736C254.973 123.432 250.442 124.093 245.704 124.699M259.261 122.736C261.115 122.435 262.923 122.128 264.683 121.815M252.482 242.232C248.72 243.296 244.951 244.241 241.185 245.074M245.704 124.699L241.185 245.074M245.704 124.699C241.632 125.22 237.406 125.7 233.051 126.127M241.185 245.074C237.414 245.908 233.645 246.631 229.888 247.25M233.051 126.127L229.888 247.25M233.051 126.127C228.372 126.585 223.542 126.982 218.59 127.3M229.888 247.25C225.195 248.022 220.52 248.634 215.879 249.099M218.59 127.3L215.879 249.099M218.59 127.3C214.889 127.538 211.119 127.733 207.293 127.877M215.879 249.099C213.002 249.388 210.139 249.62 207.293 249.801M207.293 127.877V249.801M207.293 127.877C201.387 128.1 195.347 128.203 189.217 128.161M207.293 249.801C201.174 250.188 195.136 250.335 189.217 250.277M189.217 128.161V250.277M189.217 128.161C183.854 128.125 178.422 127.978 172.949 127.704M189.217 250.277C184.663 250.233 180.18 250.069 175.787 249.801M172.949 127.704L175.787 249.801M172.949 127.704C169.05 127.509 165.13 127.249 161.2 126.919M175.787 249.801C171.905 249.564 168.093 249.246 164.363 248.859M161.2 126.919L164.363 248.859M161.2 126.919C156.238 126.502 151.26 125.972 146.288 125.318M164.363 248.859C159.385 248.343 154.555 247.705 149.903 246.971M146.288 125.318L149.903 246.971M146.288 125.318C142.515 124.822 138.746 124.253 134.99 123.608M149.903 246.971C146.235 246.393 142.678 245.756 139.246 245.074M134.99 123.608L139.246 245.074M134.99 123.608C130.295 122.802 125.619 121.876 120.982 120.818M139.246 245.074C134.807 244.192 130.578 243.234 126.59 242.232M120.982 120.818L126.59 242.232M120.982 120.818C119.925 120.578 118.871 120.33 117.818 120.076M126.59 242.232C121.791 241.025 117.342 239.752 113.3 238.466M105.165 116.639L113.3 238.466M105.165 116.639C103.922 116.262 102.682 115.875 101.448 115.476M105.165 116.639C106.402 117.014 107.643 117.377 108.888 117.731M93.8682 83.4593L89.8012 55.2653M93.8682 83.4593V55.9012M93.8682 83.4593C92.0606 72.6366 89.9819 52.5246 96.1277 58.6574C100.597 63.1174 100.239 62.4419 98.8418 60.7588C98.3257 60.137 97.3384 60.5975 97.4647 61.3956V61.3956C97.6116 62.3237 99.1902 62.3278 99.43 61.4192C100.084 58.943 100.969 57.214 102.002 58.6574C103.388 60.5933 105.924 61.0628 107.779 61.0411C108.54 61.0321 109.233 61.6124 109.233 62.3734V62.3734C109.233 63.6913 111.033 64.073 111.568 62.8685L113.437 58.6574M89.8012 55.2653C91.1617 55.4816 92.5174 55.6936 93.8682 55.9012M93.8682 55.9012C100.512 56.9223 107.036 57.8387 113.437 58.6574M113.437 58.6574C182.103 67.4398 236.61 64.9843 271.914 59.9574M100.195 23.9348L94.772 41.0377M94.772 41.0377C98.865 41.624 102.933 42.167 106.973 42.6687M110.588 32.9537L106.973 42.6687M106.973 42.6687C123.659 44.7413 139.861 46.1114 155.325 46.9336M114.203 21.2291L111.944 12.3653M114.203 21.2291L117.367 12.6471M114.203 21.2291L114.655 12.5062M111.944 12.3653L114.655 12.5062M117.367 12.6471L114.655 12.5062M155.325 46.9336C155.476 44.8289 156.229 40.3491 158.037 39.2669M155.325 46.9336C178.686 48.1755 200.366 48.1671 219.494 47.4405M158.037 39.2669C159.415 38.4419 159.655 41.5827 159.558 44.4543C159.527 45.363 158.407 45.7036 157.838 44.9941V44.9941C157.676 44.7912 157.597 44.5338 157.619 44.2748L158.037 39.2669ZM219.494 47.4405C219.946 44.5656 221.211 38.9963 222.657 39.7178M219.494 47.4405C220.404 47.406 221.307 47.3698 222.205 47.3321M222.657 39.7178C223.679 40.2277 224.16 42.5697 224.353 44.6423C224.477 45.9637 223.512 47.1012 222.205 47.3321V47.3321M222.657 39.7178L222.205 47.3321M284.566 41.2691L280.499 24.8367M289.537 56.9515C289.537 57.3065 289.535 57.6595 289.53 58.0105C289.46 63.3062 286.382 62.7638 286.826 57.4862V57.4862M289.537 56.9515C288.654 57.1308 287.75 57.3091 286.826 57.4862M289.537 56.9515L286.826 57.4862M286.826 57.4862C285.228 57.7925 283.571 58.0952 281.855 58.3927M281.855 58.3927C281.855 63.1407 281.765 71.8249 281.403 68.5782C281.042 65.3314 279.445 60.7895 278.692 58.9244M281.855 58.3927C280.822 58.5719 279.767 58.7492 278.692 58.9244M278.692 58.9244C276.518 59.2784 274.258 59.6236 271.914 59.9574M271.914 59.9574C271.914 63.4322 271.642 70.1114 270.558 69.0291C269.473 67.9468 269.202 62.8662 269.202 60.4612M275.981 119.613C276.432 112.522 277.607 98.7011 278.692 100.144M275.981 119.613C276.805 119.437 277.613 119.26 278.404 119.084M278.692 100.144C279.776 101.587 280.275 113.071 280.388 118.633M278.692 100.144L278.404 119.084M280.388 118.633C279.739 118.783 279.078 118.933 278.404 119.084M261.52 122.24C261.52 118.182 261.791 110.426 262.876 111.869C263.96 113.312 264.533 119.101 264.683 121.815M264.683 121.815C265.292 121.707 265.894 121.599 266.491 121.49M266.491 121.49C266.792 116.178 267.575 106.097 268.298 108.261M266.491 121.49C267.254 121.35 268.007 121.21 268.75 121.069M268.298 108.261C269.021 110.426 270.407 117.411 271.01 120.633M268.298 108.261L268.75 121.069M271.01 120.633C270.267 120.779 269.514 120.925 268.75 121.069M111.04 300.808C111.793 286.831 113.3 259.598 113.3 262.484C113.3 265.37 113.3 290.079 113.3 302.073M111.04 300.808C111.775 301.229 112.528 301.651 113.3 302.073M113.3 302.073C115.02 303.014 116.829 303.955 118.722 304.887M118.722 304.887C119.325 297.367 120.62 283.317 120.982 287.285C121.343 291.254 121.735 301.682 121.885 306.4M118.722 304.887C119.752 305.395 120.807 305.9 121.885 306.4M121.885 306.4C124.327 307.534 126.891 308.648 129.568 309.727M129.568 309.727C130.17 304.802 131.375 295.312 131.375 296.755C131.375 298.198 131.978 306.714 132.279 310.792M129.568 309.727C130.459 310.086 131.363 310.441 132.279 310.792M132.279 310.792C161.611 322.023 203.377 328.633 245.704 311.753M245.704 311.753C246.306 306.303 247.511 295.763 247.511 297.206C247.511 298.649 248.415 306.635 248.867 310.448M245.704 311.753C246.758 311.332 247.812 310.897 248.867 310.448M248.867 310.448C251.729 309.227 254.592 307.897 257.453 306.451M257.453 306.451C257.905 299.912 258.809 287.376 258.809 289.54C258.809 291.705 259.411 300.939 259.712 305.285M257.453 306.451C258.206 306.071 258.96 305.682 259.712 305.285M259.712 305.285C260.798 304.714 261.882 304.125 262.966 303.519M262.966 303.519C264.292 283.828 266.943 248.955 266.943 266.993C266.943 285.031 266.34 297.683 266.039 301.755M262.966 303.519C263.991 302.947 265.015 302.359 266.039 301.755M98.7178 114.574C99.0595 109.464 99.8332 99.6932 100.195 101.497C100.556 103.301 101.181 111.568 101.448 115.476M98.7178 114.574C99.625 114.881 100.535 115.182 101.448 115.476M108.888 117.731C109.756 113.222 111.402 105.555 111.04 110.967C111.028 111.145 111.018 111.314 111.011 111.473C110.813 115.674 117.748 109.033 117.367 113.222V113.222C117.005 117.19 117.517 119.444 117.818 120.076M108.888 117.731C111.843 118.57 114.822 119.351 117.818 120.076M111.04 116.378C112.396 116.679 115.197 117.28 115.559 117.28C115.919 117.28 115.412 113.997 115.11 112.338C115.108 112.325 115.107 112.313 115.107 112.301V112.301C115.107 112.08 114.818 112.014 114.726 112.214C114.276 113.192 113.751 114.475 113.751 115.025C113.751 115.747 111.341 116.228 110.136 116.378" stroke="#444A4A" stroke-width="4"/>
</svg>
